<svg version="1.1" id="Layer_1" xmlns="http://www.w3.org/2000/svg" xmlns:xlink="http://www.w3.org/1999/xlink" x="0px" y="0px"
	 width="100%" viewBox="0 0 496 496" enable-background="new 0 0 496 496" xml:space="preserve">
<path fill="#000000" opacity="1.000000" stroke="none" 
	d="
M308.844452,382.888885 
	C282.255432,401.123993 253.204041,409.957184 221.286743,410.514526 
	C185.471176,411.139954 152.679993,402.046021 123.453209,381.385834 
	C86.180534,355.037994 62.718479,319.488129 56.172577,274.030365 
	C51.422195,241.041519 58.246990,209.696365 74.224648,180.512100 
	C92.642639,146.870438 118.836998,121.377899 154.418106,106.254074 
	C170.609665,99.371826 187.533127,95.626686 205.203949,94.449036 
	C233.379623,92.571281 260.237152,97.010437 285.930389,108.688492 
	C318.029602,123.278175 341.694366,146.903732 359.188232,177.101410 
	C362.397278,182.640808 365.834991,188.131653 367.768524,195.376572 
	C359.660858,195.376572 352.184143,194.858566 344.812714,195.517960 
	C336.978668,196.218750 332.381561,193.673111 327.970520,186.757156 
	C310.411560,159.226959 286.158997,139.622116 254.267532,131.311203 
	C206.147644,118.771141 163.195114,128.785110 126.933311,163.599792 
	C104.224472,185.402359 90.784225,212.154068 87.650940,243.476715 
	C84.844879,271.528198 92.223633,297.368988 108.205559,320.529297 
	C131.182373,353.826294 163.264252,372.383667 203.116623,377.822723 
	C224.082184,380.684143 244.219696,377.320343 263.623901,369.118011 
	C265.477783,368.334412 267.312622,367.669922 269.381195,367.669861 
	C286.867432,367.669342 304.353699,367.621277 321.839935,367.613800 
	C322.807434,367.613403 323.775055,367.846252 326.140442,368.150055 
	C320.695740,374.281342 314.804596,378.360443 308.844452,382.888885 
z"/>
<path fill="#000000" opacity="1.000000" stroke="none" 
	d="
M195.831024,340.172729 
	C167.026184,311.691589 138.526611,283.409576 109.902077,255.254578 
	C106.483856,251.892441 106.559792,249.645065 110.049850,246.372559 
	C139.703201,218.567596 169.226318,190.623718 198.783722,162.716431 
	C200.528168,161.069382 202.415665,159.856293 204.953888,159.866806 
	C216.286331,159.913757 227.619034,159.899460 238.951477,159.948303 
	C240.234314,159.953842 241.678833,159.771515 242.630371,161.461868 
	C240.954956,164.671982 237.925095,166.865860 235.292267,169.276367 
	C207.278809,194.924301 179.177338,220.476181 151.066086,246.017044 
	C146.369110,250.284546 146.239517,250.390900 150.780884,254.827560 
	C180.098648,283.469421 209.441742,312.085388 238.769379,340.717194 
	C240.828232,342.727203 243.677994,344.076233 244.629868,347.075470 
	C243.018402,348.731659 241.257858,348.164398 239.685364,348.176025 
	C231.019608,348.240173 222.310043,347.678711 213.699844,348.374878 
	C206.009552,348.996674 200.526184,346.245941 195.831024,340.172729 
z"/>
<path fill="#000000" opacity="1.000000" stroke="none" 
	d="
M183.067780,249.813843 
	C278.155060,249.773407 372.753784,249.733719 467.352478,249.703796 
	C473.892944,249.701721 474.620667,250.820145 472.302887,257.075806 
	C468.238007,268.047058 459.550964,274.222839 447.881073,274.227264 
	C365.440247,274.258545 282.999420,274.246216 200.558609,274.314178 
	C197.359680,274.316803 194.721436,273.578094 192.437576,271.309723 
	C186.532516,265.444672 180.551865,259.655792 174.635284,253.802231 
	C173.843567,253.018936 172.828644,252.265732 173.079590,250.446579 
	C176.047485,249.064148 179.394562,250.161148 183.067780,249.813843 
z"/>
<path fill="#000000" opacity="1.000000" stroke="none" 
	d="
M299.000000,212.081635 
	C334.375275,212.081299 369.250580,212.081299 404.196533,212.081299 
	C403.115601,225.276581 389.781189,236.155624 375.421387,236.196014 
	C345.448639,236.280304 315.475494,236.214050 285.502533,236.226624 
	C255.862656,236.239044 226.222778,236.278870 196.582901,236.282654 
	C194.498779,236.282913 192.326843,236.625778 189.179871,234.998169 
	C194.223511,230.123596 199.121658,225.980972 203.304367,221.211014 
	C209.866898,213.727112 217.655960,211.480026 227.571045,211.780594 
	C251.195358,212.496735 274.854767,212.055618 299.000000,212.081635 
z"/>
<path fill="#000000" opacity="1.000000" stroke="none" 
	d="
M433.096558,291.036560 
	C429.498871,302.992157 420.149780,311.576294 404.391327,311.462036 
	C349.738892,311.065704 295.081573,311.270996 240.426636,311.435089 
	C235.662964,311.449371 232.273651,310.080536 229.136078,306.554016 
	C224.097534,300.890808 218.627533,295.611450 213.284454,290.112885 
	C215.425629,287.936554 217.534988,288.640076 219.400101,288.638977 
	C289.052307,288.597412 358.704498,288.596069 428.356689,288.657440 
	C430.066101,288.658936 432.618103,287.463257 433.096558,291.036560 
z"/>
<path fill="#000000" opacity="1.000000" stroke="none" 
	d="
M303.000061,325.725891 
	C335.310394,325.732117 367.120728,325.731720 398.931030,325.748779 
	C405.464386,325.752289 406.068573,326.626099 403.366364,332.614990 
	C398.530090,343.333527 390.464478,349.187378 378.402283,349.173492 
	C345.592773,349.135712 312.783020,349.147797 279.973816,349.269135 
	C276.224426,349.283020 273.333435,348.371063 270.665283,345.597565 
	C265.821350,340.562347 260.584625,335.907257 255.611557,330.992584 
	C254.398468,329.793762 252.533127,328.840088 252.914276,325.725433 
	C269.405334,325.725433 285.952698,325.725433 303.000061,325.725891 
z"/>
</svg>